<?xml version="1.0" encoding="utf-8"?>
<!-- Generator: Adobe Illustrator 23.0.1, SVG Export Plug-In . SVG Version: 6.00 Build 0)  -->
<svg version="1.1" id="Objects" xmlns="http://www.w3.org/2000/svg" xmlns:xlink="http://www.w3.org/1999/xlink" x="0px" y="0px"
	 viewBox="0 0 204.2 190.3" style="enable-background:new 0 0 204.2 190.3;" xml:space="preserve">
<style type="text/css">
	.st0{fill-rule:evenodd;clip-rule:evenodd;fill:#454545;}
	.st1{fill:#454545;}
</style>
<g>
	<path class="st0" d="M157,79c6.6,9.9,15.5,9.4,18.4,8.9c0.2-2.3,0.1-4.7-0.2-7.1c-1.1-8.6-4.8-12.1-13.5-11.7
		c-12.9,0.7-25.7,1.8-38.5,2.7c-9.2,0.6-9.3,0.6-11.4-8.4c-2.3-9.9-13.1-7.5-21-6.9c-4.9,0.3-7-1.1-8.1-6.2
		c-1.9-9.2-2.7-22.3-8.1-30.1c-0.9-1.3-1.7-2-2.3-2.1c-3.6-1-2.5,15.4-2.7,17.8C68,54.8,62.9,73.3,57,91.3
		c-1.5,4.7-18.2,54.1-19.6,53.8c25.3,5.2,49.6,10.2,74.1,15.3c1.4,0.3,4.4-32.4,7.4-34.7c9.6-7.2,26.3,0.9,38-6.7
		c8.9-5.8,15.1-14.8,17.5-24.9C157,92.1,157,79,157,79z M103.4,85.1C98.7,83.5,87.9,80.2,88,80c1.4-4,0.8-16.5,13.5-14
		C110,67.7,105.9,79.8,103.4,85.1z"/>
	<path class="st1" d="M203.6,72.6c-0.1-1.6-0.2-3.2-0.3-4.8l0-0.3c-0.8-15.3-1.7-32.7-13.6-45.2C177,9,158.3,6,145.3,4.9
		c-3.7-0.3-7.4-0.6-11.2-0.9C111.3,2,87.7,0,64.7,0h-0.1C44.4,0,20.1,2.9,10.9,25.6C5.7,38.4,1.8,65.2,0.5,97.4
		c-0.4,8.4-1.8,50.7,3.6,61.7c7.6,15.2,24.2,19.6,37.9,21.8c24.9,3.9,85,8.8,90.8,9.1c4.4,0.2,8,0.3,11.4,0.3
		c15,0,25.8-2.1,34.1-6.5c19.2-10.2,21.9-38.6,23.8-57.4l0-0.1c0.2-2,0.4-3.9,0.6-5.7C204.3,105.4,204.7,89.7,203.6,72.6z
		 M195.2,119.8c-0.2,1.8-0.4,3.8-0.6,5.9c-1.7,17.2-4.2,43.2-19.8,51.5c-7.2,3.8-16.9,5.6-30.6,5.6c-3.3,0-6.8-0.1-11.1-0.3
		c-5.7-0.3-65.3-5.1-90-9c-11.9-1.9-26.3-5.6-32.3-17.7c-6-12-4-100,7.1-127.3C25.4,10,45.7,7.5,64.6,7.5h0.1
		c22.7,0,46.1,2,68.8,3.9c3.7,0.3,7.5,0.6,11.2,0.9c11.8,1,28.7,3.6,39.7,15.1c10,10.5,10.8,26.4,11.5,40.4c0.1,1.7,0.2,3.4,0.3,5.1
		C197.1,89.7,196.8,105,195.2,119.8z"/>
</g>
</svg>
