<?xml version="1.0" encoding="utf-8"?>
<!-- Generator: Adobe Illustrator 22.0.1, SVG Export Plug-In . SVG Version: 6.00 Build 0)  -->
<svg version="1.1" id="bandage_x5F_dog" xmlns="http://www.w3.org/2000/svg" xmlns:xlink="http://www.w3.org/1999/xlink" x="0px"
	 y="0px" viewBox="0 0 48 46.7" style="enable-background:new 0 0 48 46.7;" xml:space="preserve">
<style type="text/css">
	.st0{fill:#FCF0E5;}
	.st1{fill:#FFFFFF;}
	.st2{fill:#333333;}
	.st3{fill:#F56036;}
	.st4{fill:#C1DBDC;}
</style>
<circle class="st0" cx="26.8" cy="23.8" r="16.9"/>
<path class="st1" d="M13.4,13l11.2-0.9l7-6.4v40.2H13.3c-1.4,0-2.8-0.3-4-1c-4.5-2.5-14.1-9.3-4.1-17.7c2.3-1.9,4.3-4.1,5.8-6.7
	C12.5,18,13.4,15.8,13.4,13L13.4,13z"/>
<path class="st2" d="M31.6,46.7H13.3c-1.6,0-3.1-0.4-4.4-1.1C5.8,43.9,0.5,40.3,0,35.4c-0.3-3,1.3-6,4.7-8.9c2.3-2,4.2-4.2,5.6-6.5
	c1.4-2.4,2.2-4.4,2.2-7c0-0.5,0.3-0.8,0.8-0.9l11-0.8L31,5.1c0.3-0.2,0.6-0.3,0.9-0.2c0.3,0.1,0.5,0.4,0.5,0.8v40.2
	C32.5,46.3,32.1,46.7,31.6,46.7z M14.2,13.8c-0.2,2.7-1.1,4.8-2.4,7.1c-1.5,2.5-3.5,4.8-6,6.9c-2.9,2.5-4.3,4.9-4.1,7.4
	c0.4,4.1,5.2,7.3,8,8.9c1.1,0.6,2.3,0.9,3.6,0.9h17.4V7.7l-5.5,5.1c-0.1,0.1-0.3,0.2-0.5,0.2L14.2,13.8z"/>
<g>
	<path class="st2" d="M40.2,3.5c-0.5,0-0.9-0.4-0.9-0.9V0.9c0-0.5,0.4-0.9,0.9-0.9c0.5,0,0.9,0.4,0.9,0.9v1.7
		C41.1,3.1,40.7,3.5,40.2,3.5z"/>
	<path class="st2" d="M40.2,8.7c-0.5,0-0.9-0.4-0.9-0.9V6.1c0-0.5,0.4-0.9,0.9-0.9c0.5,0,0.9,0.4,0.9,0.9v1.7
		C41.1,8.3,40.7,8.7,40.2,8.7z"/>
	<path class="st2" d="M38.5,5.2h-1.7c-0.5,0-0.9-0.4-0.9-0.9s0.4-0.9,0.9-0.9h1.7c0.5,0,0.9,0.4,0.9,0.9S39,5.2,38.5,5.2z"/>
	<path class="st2" d="M43.7,5.2h-1.7c-0.5,0-0.9-0.4-0.9-0.9s0.4-0.9,0.9-0.9h1.7c0.5,0,0.9,0.4,0.9,0.9S44.2,5.2,43.7,5.2z"/>
	<circle class="st2" cx="47.1" cy="12.1" r="0.9"/>
</g>
<path class="st1" d="M13.4,13l-0.1-9.5c0,0,5.8,2.2,6.5,9L13.4,13z"/>
<path class="st2" d="M13.4,13.8c-0.2,0-0.4-0.1-0.6-0.2c-0.2-0.2-0.3-0.4-0.3-0.6l-0.1-9.5c0-0.3,0.1-0.6,0.4-0.7
	c0.2-0.2,0.5-0.2,0.8-0.1c0.3,0.1,6.3,2.5,7,9.7c0,0.2,0,0.5-0.2,0.6c-0.1,0.2-0.4,0.3-0.6,0.3L13.4,13.8
	C13.4,13.8,13.4,13.8,13.4,13.8L13.4,13.8z M14.1,4.9l0.1,7.1l4.5-0.4C18.1,7.9,15.6,5.8,14.1,4.9z"/>
<circle class="st2" cx="13.6" cy="23.7" r="1.6"/>
<path class="st3" d="M13.6,31.6c0,1.9-2.5,5.6-5.6,5.6s-5.6-3.8-5.6-5.6c0-1.9,2.5-3.4,5.6-3.4S13.6,29.7,13.6,31.6z"/>
<path class="st2" d="M8,38.1c-3.7,0-6.5-4.3-6.5-6.5c0-2.4,2.8-4.2,6.5-4.2s6.5,1.9,6.5,4.2C14.5,33.7,11.7,38.1,8,38.1L8,38.1z
	 M8,29.1c-2.8,0-4.8,1.3-4.8,2.5c0,1.3,2.1,4.8,4.8,4.8s4.8-3.4,4.8-4.8C12.7,30.4,10.8,29.1,8,29.1L8,29.1z"/>
<path class="st4" d="M13.4,12c0,0,3.3-4.3,10.9-1.9c6.2,2,10.6,8.4,12.6,12c0.8,1.4,0.9,3.1,0.4,4.7l-0.5,1.6l0.4,1.6
	c0.2,0.9,0.2,1.9,0.1,2.8c-0.3,1.7-1.3,3.1-2.7,4.1l-2.8,2C28,29.5,22.6,19.9,13.4,12L13.4,12z"/>
<path class="st2" d="M31.8,39.7c-0.1,0-0.2,0-0.2,0c-0.3-0.1-0.5-0.3-0.6-0.5c-4.7-11.5-10.4-19.9-18.1-26.5
	c-0.4-0.3-0.4-0.8-0.1-1.2c0.2-0.2,3.8-4.8,11.8-2.2c6.9,2.2,11.5,9.4,13.1,12.4c0.9,1.6,1.1,3.6,0.5,5.4l-0.4,1.3l0.3,1.4
	c0.3,1,0.3,2.1,0.1,3.2c-0.3,1.8-1.4,3.5-3,4.7l-2.8,2C32.1,39.6,32,39.7,31.8,39.7L31.8,39.7z M14.7,12
	c7.3,6.5,12.9,14.6,17.5,25.5l1.9-1.4c1.2-0.9,2.1-2.2,2.3-3.6c0.1-0.8,0.1-1.6-0.1-2.4L36,28.5c0-0.2,0-0.3,0-0.5l0.5-1.6
	c0.4-1.3,0.3-2.8-0.4-4C34.6,19.7,30.3,13,24,10.9C18.8,9.3,15.9,11,14.7,12L14.7,12z"/>
<path class="st1" d="M31.4,21.9c0,0,3.1,2.8,5.4,6.9"/>
<path class="st2" d="M36.8,29.7c-0.3,0-0.6-0.2-0.8-0.4c-2.2-3.9-5.2-6.7-5.2-6.7c-0.4-0.3-0.4-0.9-0.1-1.2c0.3-0.4,0.9-0.4,1.2-0.1
	c0.1,0.1,3.2,3,5.6,7.1c0.2,0.4,0.1,0.9-0.3,1.2C37.1,29.7,36.9,29.7,36.8,29.7L36.8,29.7z"/>
</svg>
